<svg xmlns:xlink="http://www.w3.org/1999/xlink" xmlns="http://www.w3.org/2000/svg" width="24" height="24" viewBox="0 0 24 24" fill="none">
<path d="M12 14.625C9.79922 14.625 8.01562 12.8625 8.01562 10.6875V5.4375C8.01562 3.2625 9.79922 1.5 12 1.5C14.2008 1.5 15.9844 3.2625 15.9844 5.4375V10.6875C15.9844 12.8625 14.2008 14.625 12 14.625ZM4.26562 10.6406C4.26562 10.5375 4.35 10.4531 4.45312 10.4531H5.85938C5.9625 10.4531 6.04688 10.5375 6.04688 10.6406C6.04688 13.9289 8.71172 16.5938 12 16.5938C15.2883 16.5938 17.9531 13.9289 17.9531 10.6406C17.9531 10.5375 18.0375 10.4531 18.1406 10.4531H19.5469C19.65 10.4531 19.7344 10.5375 19.7344 10.6406C19.7344 14.5945 16.7672 17.857 12.9375 18.3187V20.7188H16.343C16.6641 20.7188 16.9219 21.0539 16.9219 21.4688V22.3125C16.9219 22.4156 16.8562 22.5 16.7766 22.5H7.22344C7.14375 22.5 7.07812 22.4156 7.07812 22.3125V21.4688C7.07812 21.0539 7.33594 20.7188 7.65703 20.7188H11.1562V18.3305C7.28203 17.9086 4.26562 14.6273 4.26562 10.6406Z" fill="black"/>
</svg>