<svg width="132" height="130" viewBox="0 0 132 130" fill="none" xmlns="http://www.w3.org/2000/svg">
<path d="M47.2712 72.979C48.9612 72.229 50.7292 71.555 52.4792 70.888C56.6012 69.318 60.4942 67.835 63.9792 65.214C69.8562 60.799 73.7372 53.25 74.1052 45.513C74.4732 37.826 71.3762 29.882 66.0152 24.747C65.4902 17.34 70.0752 10.55 77.2032 8.205L81.5592 6.771L77.5312 4.578C72.0312 1.583 65.2272 0 57.8522 0C54.1832 0 50.4322 0.393 46.7042 1.168C29.2722 4.791 13.9992 16.091 4.79921 32.169C-9.62579 57.379 12.1172 94.696 22.1342 109.569L26.0522 115.386L25.7622 108.378C25.4682 101.253 27.8162 92.574 30.1752 88.023C34.3232 80.023 41.7622 75.426 47.2712 72.979Z" fill="#BFCBD9"/>
<path d="M94.401 68.88C96.445 67.161 98.958 66.309 101.63 65.402C103.575 64.743 105.413 64.121 107.143 63.147C111.201 60.861 114.02 56.929 116.559 53.097L117.173 52.172L116.704 51.166C114.288 45.957 110.938 42.012 107.019 39.757C104.579 38.353 101.817 37.611 99.032 37.611C96.344 37.611 93.886 38.301 91.891 39.61C90.148 34.809 85.472 31.185 80.112 30.53L75.112 29.92L78.352 33.776C82.404 38.6 84.522 44.836 84.163 50.888C83.731 58.171 79.702 65.274 73.647 69.422C70.036 71.897 65.778 73.375 61.648 74.811C59.828 75.442 57.945 76.096 56.127 76.832C50.207 79.231 42.201 83.747 37.68 91.643C33.78 98.455 32.69 115.494 36.845 122.363L37.165 122.894L37.731 123.148C47.595 127.57 58.078 129.814 68.889 129.814C73.873 129.814 78.893 129.318 83.81 128.341L84.108 128.28L84.376 128.135C89.001 125.608 93.317 120.442 92.534 114.592C91.641 107.914 86.693 101.324 79.931 97.8C76.506 96.015 73.202 95.109 70.107 95.109C69.778 95.109 69.454 95.119 69.129 95.14C65.728 95.353 62.578 96.815 60.537 99.06C61.378 96.802 63.725 95.249 65.702 94.554C67.28 93.998 68.999 93.717 70.807 93.717C72.42 93.717 74.045 93.942 75.641 94.387C78.685 95.235 81.664 96.852 84.498 99.191C84.826 99.462 85.151 99.741 85.49 100.031C87.256 101.541 89.082 103.104 91.404 103.545C91.847 103.628 92.324 103.671 92.817 103.671C94.037 103.671 95.187 103.419 96.052 103.2C102.202 101.642 107.851 97.814 111.546 92.698C112.847 90.898 113.63 89.321 114.01 87.74C114.359 86.29 114.238 84.455 112.858 83.654C112.406 83.391 112.039 83.239 111.703 83.18L111.18 83.086L110.681 83.267C110.517 83.325 110.313 83.399 109.517 83.958L109.363 84.066L109.233 84.201C107.338 86.156 104.534 87.305 101.569 87.352L101.347 87.353C98.361 87.353 95.567 86.257 93.683 84.346C91.738 82.372 90.704 79.496 90.847 76.456C90.989 73.421 92.284 70.659 94.401 68.88Z" fill="#BFCBD9"/>
<path d="M114.315 77.728L125.169 84.256C128.394 86.196 128.45 90.852 125.273 92.869L113.318 100.459C109.796 102.695 105.232 99.95 105.557 95.791L106.658 81.673C106.951 77.921 111.09 75.788 114.315 77.728Z" fill="#A69384"/>
<path d="M131.003 89.575C131.955 85.231 129.452 80.067 124.649 76.679L128.043 74.11C128.681 73.627 128.808 72.718 128.324 72.08C127.841 71.441 126.932 71.316 126.295 71.799L121.955 75.084C116.42 72.417 110.415 72.863 107.067 76.02C106.131 76.901 106.639 78.538 108.102 79.366L127.6 90.409C129.063 91.238 130.727 90.83 131.003 89.575Z" fill="#393738"/>
<path d="M109.626 88.166C108.209 90.501 108.952 93.542 111.286 94.96C113.62 96.377 116.663 95.634 118.079 93.299C119.498 90.964 118.754 87.923 116.42 86.505C114.085 85.088 111.043 85.831 109.626 88.166Z" fill="white"/>
<path d="M111.976 88.582L113.562 89.545L114.663 87.735L116.139 88.632L115.04 90.443L116.626 91.405L115.729 92.883L114.143 91.919L113.044 93.73L111.566 92.833L112.665 91.022L111.079 90.059L111.976 88.582Z" fill="#BFCBD9"/>
</svg>
